<?xml version="1.0" encoding="utf-8"?>
<!-- Generator: Adobe Illustrator 24.0.1, SVG Export Plug-In . SVG Version: 6.00 Build 0)  -->
<svg version="1.1" id="Ebene_1" xmlns="http://www.w3.org/2000/svg" xmlns:xlink="http://www.w3.org/1999/xlink" x="0px" y="0px"
	 viewBox="0 0 214.971 134.804" style="enable-background:new 0 0 214.971 134.804;" xml:space="preserve">
<style type="text/css">
	.st0{fill:#DB001B;}
</style>
<g>
	<path class="st0" d="M126.254,90.103l5.08,0.04c-5.884-10.824-15.167-19.533-26.435-24.664l-3.513,6.621
		c10.457,4.645,18.979,12.828,24.1,23.015L126.254,90.103z"/>
	<path class="st0" d="M209.695,90.116C202.738,49.776,175.892,16.257,139.608,0l-7.516,14.143
		c33.829,14.739,58.437,46.684,62.733,84.79l4.152-8.776L209.695,90.116z"/>
	<path class="st0" d="M170.889,93.086c-6.786-26.179-25.376-47.601-49.756-58.25l-5.424,10.205
		c27.299,11.543,46.459,38.564,46.459,70.067c0,2.198-0.127,4.365-0.313,6.516L170.889,93.086z"/>
	<path class="st0" d="M90.504,92.622l-20.906,39.456c-0.306,0.577-0.285,1.271,0.053,1.826c0.338,0.56,0.947,0.899,1.603,0.899
		h41.808c0.655,0,1.264-0.34,1.601-0.899c0.341-0.555,0.36-1.249,0.057-1.822l-20.901-39.46c-0.322-0.608-0.961-0.993-1.657-0.993
		C91.465,91.629,90.827,92.014,90.504,92.622"/>
</g>
<g>
	<polygon points="159.464,134.792 171.344,134.792 179.394,108.823 184.199,134.792 190.236,134.792 202.83,108.368 
		203.285,134.792 214.971,134.792 213.023,91.555 200.299,91.555 190.106,113.303 186.211,91.555 173.291,91.555 	"/>
	<path d="M136.584,109.871l1.297-8.374h3.117c2.856,0,4.219,1.168,4.219,3.7c0,3.116-1.752,4.674-5.192,4.674H136.584z
		 M120.873,134.801h11.686l2.467-15.711l7.79,15.711h13.504l-9.933-16.943c7.141-1.169,11.23-6.038,11.23-13.439
		c0-8.504-5.322-12.854-15.711-12.854h-14.152L120.873,134.801z"/>
	<path d="M6.881,91.566L0,134.804h11.75l2.727-16.36h14.261l1.559-9.737H15.971l1.168-6.752h18.453l1.623-10.388H6.881z
		 M40.407,91.566l-6.882,43.237h29.436l1.623-10.193H46.899l5.258-33.044H40.407z"/>
</g>
<g>
</g>
<g>
</g>
<g>
</g>
<g>
</g>
<g>
</g>
<g>
</g>
</svg>
